<svg xmlns="http://www.w3.org/2000/svg" viewBox="0 0 200 200" fill="none" shape-rendering="auto" width="512" height="512"><desc>"Fun Emoji Set" by "Davis Uche", licensed under "CC BY 4.0". / Remix of the original. - Created with dicebear.com</desc><metadata xmlns:dc="http://purl.org/dc/elements/1.1/" xmlns:cc="http://creativecommons.org/ns#" xmlns:rdf="http://www.w3.org/1999/02/22-rdf-syntax-ns#"><rdf:RDF><cc:Work><dc:title>Fun Emoji Set</dc:title><dc:creator><cc:Agent rdf:about="https://www.instagram.com/davedirect3/"><dc:title>Davis Uche</dc:title></cc:Agent></dc:creator><dc:source>https://www.figma.com/community/file/968125295144990435</dc:source><cc:license rdf:resource="https://creativecommons.org/licenses/by/4.0/" /></cc:Work></rdf:RDF></metadata><mask id="viewboxMask"><rect width="200" height="200" rx="100" ry="100" x="0" y="0" fill="#fff" /></mask><g mask="url(#viewboxMask)"><rect fill="#71cf62" width="200" height="200" x="0" y="0" /><g transform="scale(-1 1) translate(-200 0)"><g transform="matrix(1.5625 0 0 1.5625 37.5 110.94)"><path d="M40.54 30h-.75c-9.7-.22-20.8-5.3-23.7-16.15a1.36 1.36 0 0 1 .44-1.55 1.41 1.41 0 0 1 2.26.86c2.55 9.46 12.42 13.89 21.06 14.08 8.24.16 19.04-3.84 22.46-14.57a1.47 1.47 0 0 1 1.65-.55A1.44 1.44 0 0 1 65 13.5C61.85 23.31 52.3 30 40.54 30Z" fill="#000"/></g><g transform="matrix(1.5625 0 0 1.5625 31.25 59.38)"><path d="M74.46 30.06a13 13 0 0 1-13-13v-.66C61.46 5.95 73.01-.82 80.39.15c6.54.83 7.07 5.02 7.07 11.24v5.67a13.01 13.01 0 0 1-13 13Z" fill="#000"/><path d="M70.28 9.73a2.29 2.29 0 1 0 0-4.58 2.29 2.29 0 0 0 0 4.58Z" fill="#fff"/><path opacity=".1" d="M74.52 18.54a5.32 5.32 0 1 0 0-10.65 5.32 5.32 0 0 0 0 10.65Z" fill="#fff"/><path d="M13.47 30.06a13.01 13.01 0 0 0 12.99-13v-.66C26.46 5.95 14.92-.82 7.53.15.97.98.46 5.17.46 11.39v5.67a13 13 0 0 0 13 13Z" fill="#000"/><path d="M9.3 9.73a2.29 2.29 0 1 0 0-4.58 2.29 2.29 0 0 0 0 4.58Z" fill="#fff"/><path opacity=".1" d="M13.54 18.54a5.32 5.32 0 1 0 0-10.65 5.32 5.32 0 0 0 0 10.65Z" fill="#fff"/></g></g></g></svg>